#!OML:ASF H:\ManfredETheater\Project 1\Capture day 1\Session 1\subject.ASF
:FULLY-SPECIFIED
:DEGREES
257
root 2.25508 15.5429 2.73986 -149.895 -9.23775 172.606
lowerback 19.1681 -4.14346 -0.329465
upperback 0.0146085 -5.52481 1.74117
thorax -10.5218 -2.60014 3.63886
lowerneck -19.7576 -2.78192 -3.63415
upperneck -7.36758 -1.39006 2.97205
head 1.01514 0.144352 1.51094
rclavicle 1.98785e-015 -7.15625e-015
rhumerus -77.6332 0.850197 -78.0594
rradius 79.0353
rwrist -17.853
rhand -33.3264 13.3783
rfingers 7.12502
rthumb -6.52937 -16.5011
lclavicle 1.98785e-015 -7.15625e-015
lhumerus -15.6745 -18.3289 97.3131
lradius 123.12
lwrist 15.382
lhand -25.8697 -7.71684
lfingers 7.12502
lthumb 0.671547 22.2618
rfemur -81.8771 -13.4031 21.2679
rtibia 99.5608
rfoot -19.5772 -6.33551
rtoes -6.75183
lfemur -20.1873 -3.14291 -23.746
ltibia 50.4264
lfoot -24.0416 -19.0328
ltoes -18.0246
258
root 2.24439 15.5763 2.18951 -150.228 -8.95688 172.84
lowerback 19.0312 -4.31692 -0.150759
upperback 0.0401323 -5.6962 1.9954
thorax -10.3975 -2.68983 3.84855
lowerneck -20.0897 -2.42977 -3.56592
upperneck -7.15498 -0.936874 2.55821
head 1.12016 0.351993 1.39723
rclavicle -4.69132e-014 1.59028e-015
rhumerus -80.5704 1.85304 -77.3374
rradius 81.1335
rwrist -18.126
rhand -33.2315 13.677
rfingers 7.12502
rthumb -6.43774 -16.2051
lclavicle -4.69132e-014 1.59028e-015
lhumerus -13.6458 -18.3871 95.6784
lradius 126.93
lwrist 15.6344
lhand -25.7168 -7.69333
lfingers 7.12502
lthumb 0.819226 22.2848
rfemur -83.5084 -12.7065 21.3042
rtibia 97.1554
rfoot -19.9382 -6.2145
rtoes -7.34059
lfemur -16.5737 -3.48688 -23.3671
ltibia 46.9496
lfoot -20.5895 -19.3816
ltoes -19.6068
259
root 2.23061 15.6135 1.62818 -150.659 -8.48937 173.1
lowerback 18.9133 -4.42839 0.0215361
upperback 0.118563 -5.79933 2.19103
thorax -10.2341 -2.75217 3.97683
lowerneck -20.3292 -2.10009 -3.54816
upperneck -7.015 -0.502269 2.19265
head 1.18952 0.553103 1.30718
rclavicle 9.08446e-014 -1.94809e-014
rhumerus -83.1345 2.68066 -76.6182
rradius 83.0625
rwrist -18.2266
rhand -33.1351 13.9591
rfingers 7.12502
rthumb -6.34467 -15.9259
lclavicle 9.08446e-014 -1.94809e-014
lhumerus -11.8151 -18.1383 93.8843
lradius 130.452
lwrist 15.5987
lhand -25.6065 -7.64521
lfingers 7.12502
lthumb 0.925797 22.3325
rfemur -84.6604 -11.9535 21.2981
rtibia 94.5082
rfoot -20.146 -5.74798
rtoes -8.26983
lfemur -12.9129 -3.98101 -23.1636
ltibia 43.3683
lfoot -16.047 -19.5177
ltoes -20.9361
260
root 2.21451 15.6511 1.05803 -151.149 -7.86556 173.359
lowerback 18.805 -4.47889 0.180047
upperback 0.232947 -5.8351 2.3294
thorax -10.0448 -2.78569 4.0302
lowerneck -20.4882 -1.81231 -3.57347
upperneck -6.92984 -0.114734 1.85302
head 1.23064 0.732656 1.22957
rclavicle -7.7526e-014 3.57812e-014
rhumerus -85.2908 3.27794 -75.8593
rradius 84.8124
rwrist -18.1627
rhand -33.0413 14.2233
rfingers 7.12502
rthumb -6.25412 -15.6644
lclavicle -7.7526e-014 3.57812e-014
lhumerus -10.2524 -17.6094 92.0612
lradius 133.614
lwrist 15.431
lhand -25.5416 -7.53934
lfingers 7.12502
lthumb 0.988455 22.4381
rfemur -85.4097 -11.1976 21.3025
rtibia 91.7182
rfoot -20.1948 -4.97076
rtoes -9.59208
lfemur -9.33486 -4.68571 -23.169
ltibia 39.7833
lfoot -10.2535 -19.3552
ltoes -21.6644
261
root 2.19731 15.6905 0.479808 -151.664 -7.13853 173.59
lowerback 18.7071 -4.47961 0.310882
upperback 0.365476 -5.81837 2.41925
thorax -9.84708 -2.79497 4.03177
lowerneck -20.5783 -1.57129 -3.63188
upperneck -6.88016 0.215777 1.52555
head 1.25135 0.884691 1.15716
rclavicle -7.17613e-014 -5.1684e-015
rhumerus -87.0116 3.62931 -75.0547
rradius 86.3987
rwrist -18.0162
rhand -32.9647 14.48
rfingers 7.12502
rthumb -6.18015 -15.4098
lclavicle -7.17613e-014 -5.1684e-015
lhumerus -9.00585 -16.8632 90.3246
lradius 136.345
lwrist 15.3261
lhand -25.5558 -7.4708
lfingers 7.12502
lthumb 0.974781 22.5067
rfemur -85.7957 -10.5032 21.3647
rtibia 88.864
rfoot -20.0823 -3.96668
rtoes -11.1335
lfemur -5.95561 -5.62614 -23.4046
ltibia 36.3249
lfoot -3.43209 -18.6968
ltoes -21.9121
262
root 2.18044 15.7317 -0.104208 -152.154 -6.33804 173.765
lowerback 18.6165 -4.4358 0.379003
upperback 0.488378 -5.75918 2.47111
thorax -9.66466 -2.78086 4.01726
lowerneck -20.6211 -1.37172 -3.70553
upperneck -6.83146 0.490167 1.19124
head 1.26633 1.0074 1.0809
rclavicle 2.70347e-014 -1.31198e-014
rhumerus -88.2733 3.7421 -74.225
rradius 87.8473
rwrist -17.8986
rhand -32.9079 14.6765
rfingers 7.12502
rthumb -6.12531 -15.215
lclavicle 2.70347e-014 -1.31198e-014
lhumerus -8.14007 -15.9933 88.7788
lradius 138.588
lwrist 15.4132
lhand -25.5967 -7.37418
lfingers 7.12502
lthumb 0.935249 22.6035
rfemur -85.8949 -9.90545 21.5171
rtibia 86.0344
rfoot -19.8039 -2.87297
rtoes -12.7359
lfemur -2.92359 -6.76834 -23.883
ltibia 33.181
lfoot 4.05857 -17.5249
ltoes -21.3728
263
root 2.16511 15.7734 -0.69142 -152.574 -5.50742 173.868
lowerback 18.5179 -4.35972 0.362844
upperback 0.581906 -5.67419 2.49894
thorax -9.50634 -2.74891 4.0184
lowerneck -20.6247 -1.20103 -3.7693
upperneck -6.77155 0.719089 0.833158
head 1.28045 1.10462 0.9917
rclavicle -3.18055e-015 7.95139e-016
rhumerus -89.0524 3.64178 -73.4193
rradius 89.1698
rwrist -17.8883
rhand -32.8548 14.8496
rfingers 7.12502
rthumb -6.074 -15.0433
lclavicle -3.18055e-015 7.95139e-016
lhumerus -7.70632 -15.11 87.4993
lradius 140.287
lwrist 15.7116
lhand -25.6208 -7.23317
lfingers 7.12502
lthumb 0.911999 22.7446
rfemur -85.7809 -9.44066 21.7917
rtibia 83.3168
rfoot -19.3681 -1.83859
rtoes -14.2707
lfemur -0.371773 -8.03712 -24.5744
ltibia 30.5789
lfoot 11.6916 -15.972
ltoes -19.3903
264
root 2.15227 15.8151 -1.27997 -152.912 -4.67356 173.892
lowerback 18.4179 -4.25793 0.245298
upperback 0.638027 -5.57312 2.51144
thorax -9.38169 -2.70226 4.05811
lowerneck -20.6196 -1.04689 -3.81021
upperneck -6.67055 0.916186 0.453604
head 1.30872 1.18195 0.889747
rclavicle -1.11319e-014 1.15295e-014
rhumerus -89.3353 3.354 -72.7009
rradius 90.3771
rwrist -18.0142
rhand -32.8062 15.0092
rfingers 7.12502
rthumb -6.02707 -14.885
lclavicle -1.11319e-014 1.15295e-014
lhumerus -7.73747 -14.3363 86.5348
lradius 141.379
lwrist 16.1119
lhand -25.6093 -7.07009
lfingers 7.12502
lthumb 0.923069 22.9077
rfemur -85.4844 -9.11978 22.1861
rtibia 80.7892
rfoot -18.7829 -0.960591
rtoes -15.5108
lfemur 1.59753 -9.25532 -25.4158
ltibia 28.7822
lfoot 18.5823 -14.3756
ltoes -16.252
265
root 2.14264 15.8566 -1.86775 -153.162 -3.86352 173.84
lowerback 18.3259 -4.13738 0.0236985
upperback 0.655828 -5.46427 2.51624
thorax -9.2959 -2.64454 4.14948
lowerneck -20.6475 -0.904706 -3.81241
upperneck -6.50729 1.08749 0.0536952
head 1.36541 1.24193 0.773863
rclavicle -9.46215e-014 2.50469e-014
rhumerus -89.11 2.90151 -72.1318
rradius 91.4535
rwrist -18.2247
rhand -32.7383 15.1777
rfingers 7.12502
rthumb -5.96154 -14.7184
lclavicle -9.46215e-014 2.50469e-014
lhumerus -8.25112 -13.7675 85.9216
lradius 141.807
lwrist 16.4057
lhand -25.5317 -6.87679
lfingers 7.12502
lthumb 0.998078 23.1006
rfemur -85.0212 -8.95111 22.6868
rtibia 78.5106
rfoot -18.0899 -0.299044
rtoes -16.4065
lfemur 2.88906 -10.2032 -26.31
ltibia 28.0427
lfoot 24.1343 -13.0103
ltoes -11.9876
